<svg xmlns="http://www.w3.org/2000/svg" viewBox="0 0 64 64">
  <defs>
    <linearGradient id="spiral" x1="0%" y1="0%" x2="100%" y2="100%">
      <stop offset="0%" stop-color="#8be6ff"/>
      <stop offset="55%" stop-color="#a5b4fc"/>
      <stop offset="100%" stop-color="#f0abfc"/>
    </linearGradient>
    <radialGradient id="glow" cx="50%" cy="50%" r="55%">
      <stop offset="0%" stop-color="#818cf8" stop-opacity="0.35"/>
      <stop offset="70%" stop-color="#818cf8" stop-opacity="0.08"/>
      <stop offset="100%" stop-color="#818cf8" stop-opacity="0"/>
    </radialGradient>
    <filter id="soft" x="-40%" y="-40%" width="180%" height="180%">
      <feGaussianBlur stdDeviation="1.6"/>
    </filter>
  </defs>
  <rect width="64" height="64" rx="14" fill="#0a0e1f"/>
  <circle cx="32" cy="32" r="26" fill="url(#glow)"/>
  <path d="M 32.0 30.45 L 32.18 30.43 L 32.37 30.43 L 32.57 30.45 L 32.76 30.5 L 32.95 30.57 L 33.13 30.66 L 33.3 30.77 L 33.47 30.91 L 33.62 31.07 L 33.75 31.25 L 33.86 31.45 L 33.95 31.66 L 34.02 31.89 L 34.06 32.13 L 34.08 32.38 L 34.06 32.63 L 34.01 32.88 L 33.94 33.13 L 33.83 33.38 L 33.69 33.62 L 33.52 33.84 L 33.32 34.04 L 33.1 34.23 L 32.85 34.39 L 32.58 34.53 L 32.28 34.63 L 31.98 34.7 L 31.65 34.73 L 31.33 34.73 L 30.99 34.69 L 30.66 34.6 L 30.33 34.48 L 30.01 34.32 L 29.71 34.11 L 29.43 33.87 L 29.17 33.59 L 28.94 33.28 L 28.75 32.93 L 28.59 32.56 L 28.48 32.16 L 28.41 31.74 L 28.39 31.31 L 28.42 30.87 L 28.51 30.43 L 28.65 30.0 L 28.84 29.57 L 29.08 29.16 L 29.38 28.78 L 29.73 28.42 L 30.12 28.1 L 30.56 27.82 L 31.04 27.59 L 31.55 27.42 L 32.08 27.3 L 32.64 27.25 L 33.22 27.26 L 33.8 27.34 L 34.38 27.49 L 34.95 27.71 L 35.5 28.0 L 36.02 28.36 L 36.51 28.79 L 36.95 29.28 L 37.35 29.83 L 37.68 30.43 L 37.94 31.09 L 38.13 31.78 L 38.24 32.51 L 38.27 33.25 L 38.21 34.02 L 38.05 34.78 L 37.81 35.54 L 37.47 36.28 L 37.03 36.99 L 36.51 37.65 L 35.9 38.27 L 35.21 38.82 L 34.44 39.29 L 33.61 39.68 L 32.72 39.98 L 31.78 40.18 L 30.8 40.26 L 29.81 40.24 L 28.8 40.09 L 27.79 39.82 L 26.8 39.43 L 25.85 38.91 L 24.94 38.28 L 24.1 37.53 L 23.33 36.66 L 22.66 35.7 L 22.09 34.64 L 21.64 33.5 L 21.32 32.29 L 21.14 31.02 L 21.1 29.72 L 21.23 28.39 L 21.51 27.06 L 21.95 25.75 L 22.55 24.47 L 23.32 23.24 L 24.24 22.09 L 25.31 21.03 L 26.52 20.08 L 27.86 19.26 L 29.32 18.6 L 30.87 18.09 L 32.51 17.77 L 34.21 17.63 L 35.95 17.69 L 37.7 17.97 L 39.45 18.45 L 41.16 19.15 L 42.82 20.06 L 44.38 21.18 L 45.84 22.5 L 47.16 24.02 L 48.32 25.71 L 49.29 27.56 L 50.06 29.55 L 50.6 31.67 L 50.89 33.87 L 50.93 36.14 L 50.7 38.45 L 50.19 40.76 L 49.4 43.04 L 48.33 45.27 L 46.98 47.39 L 45.36 49.38 L 43.48 51.21 L 41.35 52.84 L 39.01 54.24 L 36.46 55.38 L 33.74 56.23 L 30.89 56.77 L 27.93 56.98 L 24.9 56.84 L 21.85 56.34 L 18.82 55.47 L 15.85 54.23" fill="none" stroke="url(#spiral)" stroke-width="3.4" stroke-linecap="round" filter="url(#soft)" opacity="0.55"/>
  <path d="M 32.0 30.45 L 32.18 30.43 L 32.37 30.43 L 32.57 30.45 L 32.76 30.5 L 32.95 30.57 L 33.13 30.66 L 33.3 30.77 L 33.47 30.91 L 33.62 31.07 L 33.75 31.25 L 33.86 31.45 L 33.95 31.66 L 34.02 31.89 L 34.06 32.13 L 34.08 32.38 L 34.06 32.63 L 34.01 32.88 L 33.94 33.13 L 33.83 33.38 L 33.69 33.62 L 33.52 33.84 L 33.32 34.04 L 33.1 34.23 L 32.85 34.39 L 32.58 34.53 L 32.28 34.63 L 31.98 34.7 L 31.65 34.73 L 31.33 34.73 L 30.99 34.69 L 30.66 34.6 L 30.33 34.48 L 30.01 34.32 L 29.71 34.11 L 29.43 33.87 L 29.17 33.59 L 28.94 33.28 L 28.75 32.93 L 28.59 32.56 L 28.48 32.16 L 28.41 31.74 L 28.39 31.31 L 28.42 30.87 L 28.51 30.43 L 28.65 30.0 L 28.84 29.57 L 29.08 29.16 L 29.38 28.78 L 29.73 28.42 L 30.12 28.1 L 30.56 27.82 L 31.04 27.59 L 31.55 27.42 L 32.08 27.3 L 32.64 27.25 L 33.22 27.26 L 33.8 27.34 L 34.38 27.49 L 34.95 27.71 L 35.5 28.0 L 36.02 28.36 L 36.51 28.79 L 36.95 29.28 L 37.35 29.83 L 37.68 30.43 L 37.94 31.09 L 38.13 31.78 L 38.24 32.51 L 38.27 33.25 L 38.21 34.02 L 38.05 34.78 L 37.81 35.54 L 37.47 36.28 L 37.03 36.99 L 36.51 37.65 L 35.9 38.27 L 35.21 38.82 L 34.44 39.29 L 33.61 39.68 L 32.72 39.98 L 31.78 40.18 L 30.8 40.26 L 29.81 40.24 L 28.8 40.09 L 27.79 39.82 L 26.8 39.43 L 25.85 38.91 L 24.94 38.28 L 24.1 37.53 L 23.33 36.66 L 22.66 35.7 L 22.09 34.64 L 21.64 33.5 L 21.32 32.29 L 21.14 31.02 L 21.1 29.72 L 21.23 28.39 L 21.51 27.06 L 21.95 25.75 L 22.55 24.47 L 23.32 23.24 L 24.24 22.09 L 25.31 21.03 L 26.52 20.08 L 27.86 19.26 L 29.32 18.6 L 30.87 18.09 L 32.51 17.77 L 34.21 17.63 L 35.95 17.69 L 37.7 17.97 L 39.45 18.45 L 41.16 19.15 L 42.82 20.06 L 44.38 21.18 L 45.84 22.5 L 47.16 24.02 L 48.32 25.71 L 49.29 27.56 L 50.06 29.55 L 50.6 31.67 L 50.89 33.87 L 50.93 36.14 L 50.7 38.45 L 50.19 40.76 L 49.4 43.04 L 48.33 45.27 L 46.98 47.39 L 45.36 49.38 L 43.48 51.21 L 41.35 52.84 L 39.01 54.24 L 36.46 55.38 L 33.74 56.23 L 30.89 56.77 L 27.93 56.98 L 24.9 56.84 L 21.85 56.34 L 18.82 55.47 L 15.85 54.23" fill="none" stroke="url(#spiral)" stroke-width="2.6" stroke-linecap="round"/>
  <circle cx="15.85" cy="54.23" r="2.6" fill="#8be6ff"/>
  <circle cx="32" cy="32" r="1.7" fill="#f0abfc"/>
</svg>